<svg xmlns="http://www.w3.org/2000/svg" viewBox="0 0 166.42 15.76"><path d="M6.08,10.85H1V9.51h2.8l2.78,0A2.9,2.9,0,0,0,7.6,9.3a1.3,1.3,0,0,0,.63-.48,1.35,1.35,0,0,0,.2-.73,1.2,1.2,0,0,0-.24-.75,2.28,2.28,0,0,0-.72-.56,11.21,11.21,0,0,0-1.21-.55,10.15,10.15,0,0,1-.94-.45,3.92,3.92,0,0,1-.79-.6A2.53,2.53,0,0,1,4,4.37a2.67,2.67,0,0,1-.2-1.1,2.52,2.52,0,0,1,.4-1.45A2.58,2.58,0,0,1,5.33.9,4.24,4.24,0,0,1,7.06.57,6.33,6.33,0,0,1,8.54.74a7.61,7.61,0,0,1,1.37.46L9.39,2.52a9.25,9.25,0,0,0-1.19-.4A4.71,4.71,0,0,0,7,2a2.18,2.18,0,0,0-.89.16,1.21,1.21,0,0,0-.55.44,1.22,1.22,0,0,0-.18.67A1.27,1.27,0,0,0,5.61,4a2.13,2.13,0,0,0,.67.54c.3.16.7.34,1.17.55a8.4,8.4,0,0,1,1.41.71,2.69,2.69,0,0,1,.88.9A2.52,2.52,0,0,1,10.05,8a2.67,2.67,0,0,1-.43,1.53,2.77,2.77,0,0,1-1.25,1,5.08,5.08,0,0,1-1.93.34" style="fill:#47af5a"/><path d="M15.7,3a2.65,2.65,0,0,1,2.16,1,4.44,4.44,0,0,1,.82,2.92,5.46,5.46,0,0,1-.38,2.16,2.92,2.92,0,0,1-1.06,1.33,2.79,2.79,0,0,1-1.58.45,3,3,0,0,1-1-.15,2.53,2.53,0,0,1-.73-.39,2.75,2.75,0,0,1-.5-.53h-.1c0,.18.05.38.07.6s0,.42,0,.61v3.08H11.81V3.14h1.32l.22,1.05h.08a3.13,3.13,0,0,1,.51-.59,2.27,2.27,0,0,1,.74-.44A2.88,2.88,0,0,1,15.7,3Zm-.43,1.31a1.91,1.91,0,0,0-1.07.27,1.5,1.5,0,0,0-.58.79,4.4,4.4,0,0,0-.19,1.32v.22a5.34,5.34,0,0,0,.17,1.43,1.72,1.72,0,0,0,.58.89,1.83,1.83,0,0,0,1.11.3,1.49,1.49,0,0,0,1-.32,2,2,0,0,0,.58-.92A4.47,4.47,0,0,0,17,6.89,3.5,3.5,0,0,0,16.6,5,1.48,1.48,0,0,0,15.27,4.31Z" style="fill:#fff"/><path d="M27.23,6.91A5.12,5.12,0,0,1,27,8.59a3.4,3.4,0,0,1-.71,1.23,3.33,3.33,0,0,1-1.14.77,4.14,4.14,0,0,1-1.5.26,3.82,3.82,0,0,1-1.42-.26,3.29,3.29,0,0,1-1.13-.77,3.44,3.44,0,0,1-.73-1.23,4.86,4.86,0,0,1-.26-1.68,4.71,4.71,0,0,1,.43-2.12,3,3,0,0,1,1.24-1.33A3.79,3.79,0,0,1,23.68,3a3.63,3.63,0,0,1,1.85.46,3.16,3.16,0,0,1,1.25,1.33A4.61,4.61,0,0,1,27.23,6.91Zm-5.49,0a4.59,4.59,0,0,0,.2,1.42,1.88,1.88,0,0,0,.63.9,1.83,1.83,0,0,0,1.09.31,1.88,1.88,0,0,0,1.1-.31,1.8,1.8,0,0,0,.62-.9,4.59,4.59,0,0,0,.2-1.42,4.37,4.37,0,0,0-.2-1.4,1.77,1.77,0,0,0-.62-.89,1.89,1.89,0,0,0-1.11-.3A1.62,1.62,0,0,0,22.2,5,3.36,3.36,0,0,0,21.74,6.91Z" style="fill:#fff"/><path d="M31.89,9.55a3.18,3.18,0,0,0,.62-.06,3.52,3.52,0,0,0,.56-.14v1.22a3.24,3.24,0,0,1-.69.2,5,5,0,0,1-.88.08,2.81,2.81,0,0,1-1.15-.22,1.67,1.67,0,0,1-.82-.74,2.93,2.93,0,0,1-.3-1.45V4.37h-1V3.65l1.11-.57.52-1.62h1V3.14H33V4.37H30.85V8.42a1.15,1.15,0,0,0,.28.85A1,1,0,0,0,31.89,9.55Z" style="fill:#fff"/><path d="M35.43.25a1.07,1.07,0,0,1,.64.19.81.81,0,0,1,.27.69.8.8,0,0,1-.27.68,1.08,1.08,0,0,1-.64.2,1.07,1.07,0,0,1-.65-.2.83.83,0,0,1-.26-.68.83.83,0,0,1,.26-.69A1.06,1.06,0,0,1,35.43.25Zm.79,2.89v7.57H34.61V3.14Z" style="fill:#fff"/><path d="M42.3,4.37H40.46v6.34H38.85V4.37H37.61V3.6l1.24-.48V2.6a3.15,3.15,0,0,1,.31-1.53A1.78,1.78,0,0,1,40,.25,3.34,3.34,0,0,1,41.39,0a4.58,4.58,0,0,1,1,.09,4.49,4.49,0,0,1,.73.19L42.65,1.5a4.81,4.81,0,0,0-.52-.14,2.37,2.37,0,0,0-.61-.07,1,1,0,0,0-.81.34,1.66,1.66,0,0,0-.25,1v.51H42.3Z" style="fill:#fff"/><path d="M42.44,3.14h1.75l1.55,4.32c.07.2.13.39.19.58s.11.38.15.56.08.36.11.55h0a8.22,8.22,0,0,1,.19-.8c.09-.29.18-.59.29-.89L48.2,3.14h1.73l-3.25,8.61A5,5,0,0,1,46,13a2.65,2.65,0,0,1-2.22,1.07,5,5,0,0,1-.6,0L42.74,14V12.67a2.56,2.56,0,0,0,.36.07l.45,0a1.49,1.49,0,0,0,.75-.17,1.43,1.43,0,0,0,.53-.48,2.63,2.63,0,0,0,.36-.71l.27-.71Z" style="fill:#fff"/><path d="M57.78.72a4.15,4.15,0,0,1,2.82.79,2.8,2.8,0,0,1,.89,2.22A3.88,3.88,0,0,1,61.29,5a2.53,2.53,0,0,1-.66,1,3.23,3.23,0,0,1-1.21.71A5.74,5.74,0,0,1,57.58,7H56.52v3.74H54.87V.72Zm-.11,1.36H56.52V5.6h.89a4.14,4.14,0,0,0,1.31-.18,1.58,1.58,0,0,0,.82-.58,1.74,1.74,0,0,0,.28-1A1.56,1.56,0,0,0,59.3,2.5,2.59,2.59,0,0,0,57.67,2.08Z" style="fill:#47af5a"/><path d="M64.93,10.71H63.32V.08h1.61Z" style="fill:#fff"/><path d="M70.19,3a3.21,3.21,0,0,1,2.17.64,2.47,2.47,0,0,1,.73,2v5.09H72l-.31-1.07h0a4.77,4.77,0,0,1-.66.68,2.67,2.67,0,0,1-.79.4,4.28,4.28,0,0,1-1.09.13,2.73,2.73,0,0,1-1.21-.25A2,2,0,0,1,67,9.84a2.55,2.55,0,0,1-.3-1.3,2,2,0,0,1,.87-1.76,5.08,5.08,0,0,1,2.63-.65l1.32,0V5.69a1.46,1.46,0,0,0-.37-1.12,1.44,1.44,0,0,0-1-.34A3.72,3.72,0,0,0,69,4.4a7,7,0,0,0-1,.4l-.52-1.14a6,6,0,0,1,1.26-.47A5.61,5.61,0,0,1,70.19,3ZM71.5,7.1l-1,0a3.08,3.08,0,0,0-1.69.41,1.21,1.21,0,0,0-.48,1,1,1,0,0,0,.33.82,1.43,1.43,0,0,0,.88.25A2,2,0,0,0,71,9.15a1.74,1.74,0,0,0,.55-1.4Z" style="fill:#fff"/><path d="M74.2,3.14H76L77.5,7.46c.07.2.13.39.19.58s.11.38.15.56.08.36.11.55h0a8.22,8.22,0,0,1,.19-.8c.09-.29.18-.59.29-.89L80,3.14h1.73l-3.25,8.61A5,5,0,0,1,77.75,13a2.65,2.65,0,0,1-2.22,1.07,5,5,0,0,1-.6,0L74.5,14V12.67a2.56,2.56,0,0,0,.36.07l.45,0a1.49,1.49,0,0,0,.75-.17,1.43,1.43,0,0,0,.53-.48A2.63,2.63,0,0,0,77,11.4l.27-.71Z" style="fill:#fff"/><path d="M84.45,10.71H82.83V.08h1.62Z" style="fill:#fff"/><path d="M87.55.25a1.05,1.05,0,0,1,.64.19.81.81,0,0,1,.27.69.8.8,0,0,1-.27.68,1.14,1.14,0,0,1-1.29,0,.83.83,0,0,1-.26-.68A.83.83,0,0,1,86.9.44,1.06,1.06,0,0,1,87.55.25Zm.79,2.89v7.57h-1.6V3.14Z" style="fill:#fff"/><path d="M95.73,8.55a2.07,2.07,0,0,1-.37,1.26,2.24,2.24,0,0,1-1,.78,4.94,4.94,0,0,1-1.7.26,7.55,7.55,0,0,1-1.36-.11,4.71,4.71,0,0,1-1.08-.35V9a7.11,7.11,0,0,0,1.21.44,5,5,0,0,0,1.28.18,2.06,2.06,0,0,0,1.14-.24.8.8,0,0,0,.35-.67A.74.74,0,0,0,94,8.27a1.7,1.7,0,0,0-.52-.41c-.26-.13-.63-.3-1.11-.5a8.7,8.7,0,0,1-1.21-.57,2,2,0,0,1-.75-.7,1.91,1.91,0,0,1-.25-1A1.72,1.72,0,0,1,91,3.52,3.9,3.9,0,0,1,93.07,3a6.14,6.14,0,0,1,1.32.14,6,6,0,0,1,1.21.41l-.5,1.21a7.08,7.08,0,0,0-1-.37,3.81,3.81,0,0,0-1-.15,1.88,1.88,0,0,0-1,.19.61.61,0,0,0-.32.55.72.72,0,0,0,.15.45,1.91,1.91,0,0,0,.55.37c.26.12.61.27,1.07.45a8.8,8.8,0,0,1,1.18.55,2.22,2.22,0,0,1,.76.69A1.92,1.92,0,0,1,95.73,8.55Z" style="fill:#fff"/><path d="M100.27,9.55a3.18,3.18,0,0,0,.62-.06,3.52,3.52,0,0,0,.56-.14v1.22a3.24,3.24,0,0,1-.69.2,5,5,0,0,1-.88.08,2.81,2.81,0,0,1-1.15-.22,1.67,1.67,0,0,1-.82-.74,2.93,2.93,0,0,1-.3-1.45V4.37h-1V3.65l1.11-.57.52-1.62h1V3.14h2.16V4.37H99.23V8.42a1.15,1.15,0,0,0,.28.85A1,1,0,0,0,100.27,9.55Z" style="fill:#fff"/><path d="M111.11,10.71l-2.88-8.34h-.06c0,.18,0,.44,0,.76s0,.67,0,1,0,.72,0,1.06v5.48h-1.49V.72h2.31l2.77,8h0l2.86-8h2.3v10H115.5V5.15c0-.31,0-.64,0-1s0-.7,0-1,0-.57,0-.76h-.06l-3,8.33Z" style="fill:#47af5a"/><path d="M122.5,3a3.21,3.21,0,0,1,2.17.64,2.47,2.47,0,0,1,.73,2v5.09h-1.14L124,9.64h0a4.33,4.33,0,0,1-.67.68,2.45,2.45,0,0,1-.79.4,4.17,4.17,0,0,1-1.09.13,2.79,2.79,0,0,1-1.21-.25,2,2,0,0,1-.84-.76,2.55,2.55,0,0,1-.3-1.3,2,2,0,0,1,.87-1.76,5.08,5.08,0,0,1,2.63-.65l1.31,0V5.69a1.46,1.46,0,0,0-.36-1.12,1.44,1.44,0,0,0-1-.34,3.72,3.72,0,0,0-1.1.17,6.56,6.56,0,0,0-1,.4l-.52-1.14A6,6,0,0,1,121,3.19,5.56,5.56,0,0,1,122.5,3Zm1.31,4.1-1,0a3.08,3.08,0,0,0-1.69.41,1.21,1.21,0,0,0-.48,1,1,1,0,0,0,.33.82,1.41,1.41,0,0,0,.88.25,2,2,0,0,0,1.39-.47,1.77,1.77,0,0,0,.55-1.4Z" style="fill:#fff"/><path d="M131.59,3a2.84,2.84,0,0,1,2,.66,2.79,2.79,0,0,1,.71,2.12v4.93h-1.61V6.08a2.09,2.09,0,0,0-.36-1.33,1.37,1.37,0,0,0-1.12-.44,1.68,1.68,0,0,0-1.53.68,3.76,3.76,0,0,0-.42,2v3.76h-1.61V3.14h1.25l.23,1h.09a2.11,2.11,0,0,1,.61-.65,2.7,2.7,0,0,1,.82-.39A3.28,3.28,0,0,1,131.59,3Z" style="fill:#fff"/><path d="M139.51,3a3.2,3.2,0,0,1,2.17.64,2.47,2.47,0,0,1,.74,2v5.09h-1.15L141,9.64h-.06a3.89,3.89,0,0,1-.66.68,2.56,2.56,0,0,1-.79.4,4.23,4.23,0,0,1-1.09.13,2.76,2.76,0,0,1-1.21-.25,1.88,1.88,0,0,1-.84-.76,2.45,2.45,0,0,1-.31-1.3,2,2,0,0,1,.87-1.76,5.1,5.1,0,0,1,2.64-.65l1.31,0V5.69a1.42,1.42,0,0,0-.37-1.12,1.41,1.41,0,0,0-1-.34,3.78,3.78,0,0,0-1.11.17,6.45,6.45,0,0,0-1,.4l-.52-1.14A6,6,0,0,1,138,3.19,5.49,5.49,0,0,1,139.51,3Zm1.31,4.1-1,0a3,3,0,0,0-1.69.41,1.19,1.19,0,0,0-.49,1,1,1,0,0,0,.34.82,1.39,1.39,0,0,0,.88.25,2,2,0,0,0,1.38-.47,1.74,1.74,0,0,0,.55-1.4Z" style="fill:#fff"/><path d="M146.82,14.08a4.16,4.16,0,0,1-2.35-.56,1.75,1.75,0,0,1-.82-1.55,1.68,1.68,0,0,1,.43-1.18,2.43,2.43,0,0,1,1.25-.67,1.41,1.41,0,0,1-.53-.42,1.13,1.13,0,0,1,0-1.37,2.46,2.46,0,0,1,.72-.58,2.06,2.06,0,0,1-.95-.83,2.46,2.46,0,0,1-.36-1.34,2.6,2.6,0,0,1,.35-1.4,2.18,2.18,0,0,1,1-.88A4,4,0,0,1,147.21,3l.45,0,.45,0a1.42,1.42,0,0,1,.32.07h2.62V4l-1.29.24a2.05,2.05,0,0,1,.3.59,2.41,2.41,0,0,1,.11.72,2.26,2.26,0,0,1-.81,1.85,3.39,3.39,0,0,1-2.23.68c-.23,0-.45,0-.67-.06a1.21,1.21,0,0,0-.37.33.67.67,0,0,0-.13.41.38.38,0,0,0,.13.3.9.9,0,0,0,.38.17,3.65,3.65,0,0,0,.63.05h1.3a3,3,0,0,1,1.9.53,1.85,1.85,0,0,1,.66,1.54,2.22,2.22,0,0,1-1.07,2A5.55,5.55,0,0,1,146.82,14.08Zm.07-1.13a5.13,5.13,0,0,0,1.41-.17,1.9,1.9,0,0,0,.87-.47,1,1,0,0,0,.29-.72.8.8,0,0,0-.18-.56,1,1,0,0,0-.55-.28,4.85,4.85,0,0,0-.92-.07h-1.19a2,2,0,0,0-.79.14,1.27,1.27,0,0,0-.53.4,1.15,1.15,0,0,0-.18.65.89.89,0,0,0,.46.8A2.58,2.58,0,0,0,146.89,13Zm.31-5.9a1.33,1.33,0,0,0,1.05-.38,1.63,1.63,0,0,0,.34-1.09,1.68,1.68,0,0,0-.35-1.15,1.35,1.35,0,0,0-1.05-.38,1.29,1.29,0,0,0-1,.39,1.63,1.63,0,0,0-.36,1.15,1.53,1.53,0,0,0,.36,1.08A1.31,1.31,0,0,0,147.2,7.05Z" style="fill:#fff"/><path d="M155.44,3a3.38,3.38,0,0,1,1.73.42,2.77,2.77,0,0,1,1.12,1.18,4,4,0,0,1,.39,1.83v.86h-5.05a2.41,2.41,0,0,0,.59,1.7,2,2,0,0,0,1.58.59,5.18,5.18,0,0,0,1.3-.14A6.82,6.82,0,0,0,158.3,9v1.31a6.33,6.33,0,0,1-1.16.39,7.13,7.13,0,0,1-1.41.12,4.25,4.25,0,0,1-2-.44,3.15,3.15,0,0,1-1.32-1.29A4.48,4.48,0,0,1,152,7a4.87,4.87,0,0,1,.43-2.16,3.12,3.12,0,0,1,1.21-1.35A3.5,3.5,0,0,1,155.44,3Zm0,1.21a1.64,1.64,0,0,0-1.23.49,2.38,2.38,0,0,0-.55,1.45h3.45a2.84,2.84,0,0,0-.19-1,1.49,1.49,0,0,0-.55-.68A1.57,1.57,0,0,0,155.44,4.21Z" style="fill:#fff"/><path d="M166.31,3.07l0,1.46m-.08-.06-2,0a2.25,2.25,0,0,0-.82.14,1.89,1.89,0,0,0-.69.42,2.12,2.12,0,0,0-.48.71,2.68,2.68,0,0,0-.17,1v4h-1.61V3.14h1.26L162,4.48H162a3.35,3.35,0,0,1,.56-.74,3,3,0,0,1,.77-.54,2.31,2.31,0,0,1,.95-.2h1.89" style="fill:#fff"/><polyline points="165.92 0 165.92 15.26 0.5 15.26 0.5 0" style="fill:none;stroke:#fff;stroke-miterlimit:10"/></svg>