<svg xmlns="http://www.w3.org/2000/svg" viewBox="0 0 60.83 60.83"><circle cx="30.42" cy="30.42" r="30.42" style="fill:#fff"/><path d="M27.35,48.85H6.28L9.61,43.8H29.09A9.55,9.55,0,0,0,32.65,43a4.56,4.56,0,0,0,2.2-1.81,5.24,5.24,0,0,0,.7-2.75,4.68,4.68,0,0,0-.84-2.82,7.93,7.93,0,0,0-2.51-2.11A38.31,38.31,0,0,0,28,31.45a34.1,34.1,0,0,1-3.29-1.7,13.79,13.79,0,0,1-2.76-2.26,9.67,9.67,0,0,1-1.85-3,10.77,10.77,0,0,1-.7-4.14,10.06,10.06,0,0,1,1.4-5.46,9.18,9.18,0,0,1,3.95-3.47,13.89,13.89,0,0,1,6-1.24,20.57,20.57,0,0,1,5.17.64,25.08,25.08,0,0,1,4.78,1.73l-1.82,5A31.17,31.17,0,0,0,34.75,16a15.18,15.18,0,0,0-4.19-.46,7.14,7.14,0,0,0-3.11.61,4.26,4.26,0,0,0-1.92,1.65,4.93,4.93,0,0,0-.63,2.53,5,5,0,0,0,.81,2.75,7.53,7.53,0,0,0,2.33,2c1.05.6,2.45,1.28,4.09,2.07a28.63,28.63,0,0,1,4.92,2.68,9.76,9.76,0,0,1,3.08,3.39,10.15,10.15,0,0,1,1.08,4.89,10.73,10.73,0,0,1-1.5,5.77,9.81,9.81,0,0,1-4.37,3.76,16.47,16.47,0,0,1-6.74,1.28" style="fill:#49af5b"/><path d="M9.61,43.8H3.09s2.47,4.45,3.19,5.05" style="fill:#49af5b"/></svg>